<svg xmlns="http://www.w3.org/2000/svg" xmlns:xlink="http://www.w3.org/1999/xlink" width="500" zoomAndPan="magnify" viewBox="0 0 375 374.999991" height="500" preserveAspectRatio="xMidYMid meet" version="1.0"><defs><clipPath id="2f2b50d24b"><path d="M 125 65 L 317 65 L 317 310 L 125 310 Z M 125 65 " clip-rule="nonzero"/></clipPath><clipPath id="c59e9fbfa8"><path d="M 263.753906 51.335938 L 330.277344 95.972656 L 177.363281 323.867188 L 110.839844 279.230469 Z M 263.753906 51.335938 " clip-rule="nonzero"/></clipPath><clipPath id="1908b076f0"><path d="M 309.800781 126.492188 L 197.988281 293.128906 C 192.558594 301.222656 184.136719 306.828125 174.570312 308.710938 C 165.007812 310.59375 155.089844 308.601562 146.996094 303.167969 L 141.507812 299.488281 C 133.414062 294.054688 127.808594 285.632812 125.925781 276.070312 C 124.042969 266.507812 126.035156 256.585938 131.464844 248.492188 L 243.277344 81.855469 C 248.710938 73.761719 257.132812 68.15625 266.695312 66.273438 C 276.257812 64.390625 286.179688 66.382812 294.273438 71.8125 L 299.761719 75.496094 C 307.855469 80.929688 313.460938 89.351562 315.34375 98.914062 C 317.226562 108.476562 315.230469 118.398438 309.800781 126.492188 Z M 309.800781 126.492188 " clip-rule="nonzero"/></clipPath><clipPath id="466c5ecac3"><path d="M 0 0 L 192 0 L 192 245 L 0 245 Z M 0 0 " clip-rule="nonzero"/></clipPath><clipPath id="7ba56ccd78"><path d="M 138.753906 -13.664062 L 205.277344 30.972656 L 52.363281 258.867188 L -14.160156 214.230469 Z M 138.753906 -13.664062 " clip-rule="nonzero"/></clipPath><clipPath id="fde2f318e6"><path d="M 184.800781 61.492188 L 72.988281 228.128906 C 67.558594 236.222656 59.136719 241.828125 49.570312 243.710938 C 40.007812 245.59375 30.089844 243.601562 21.996094 238.167969 L 16.507812 234.488281 C 8.414062 229.054688 2.808594 220.632812 0.925781 211.070312 C -0.957031 201.507812 1.035156 191.585938 6.464844 183.492188 L 118.277344 16.855469 C 123.710938 8.761719 132.132812 3.15625 141.695312 1.273438 C 151.257812 -0.609375 161.179688 1.382812 169.273438 6.8125 L 174.761719 10.496094 C 182.855469 15.929688 188.460938 24.351562 190.34375 33.914062 C 192.226562 43.476562 190.230469 53.398438 184.800781 61.492188 Z M 184.800781 61.492188 " clip-rule="nonzero"/></clipPath><clipPath id="9d2b4134aa"><rect x="0" width="192" y="0" height="245"/></clipPath><clipPath id="3e5175f79c"><path d="M 44.71875 58.40625 L 125.6875 58.40625 L 125.6875 139.375 L 44.71875 139.375 Z M 44.71875 58.40625 " clip-rule="nonzero"/></clipPath><clipPath id="925b2d8358"><path d="M 85.203125 58.40625 C 62.84375 58.40625 44.71875 76.53125 44.71875 98.890625 C 44.71875 121.25 62.84375 139.375 85.203125 139.375 C 107.5625 139.375 125.6875 121.25 125.6875 98.890625 C 125.6875 76.53125 107.5625 58.40625 85.203125 58.40625 Z M 85.203125 58.40625 " clip-rule="nonzero"/></clipPath><clipPath id="6d62d2b021"><path d="M 0.71875 0.40625 L 81.6875 0.40625 L 81.6875 81.375 L 0.71875 81.375 Z M 0.71875 0.40625 " clip-rule="nonzero"/></clipPath><clipPath id="8a8f895a4a"><path d="M 41.203125 0.40625 C 18.84375 0.40625 0.71875 18.53125 0.71875 40.890625 C 0.71875 63.25 18.84375 81.375 41.203125 81.375 C 63.5625 81.375 81.6875 63.25 81.6875 40.890625 C 81.6875 18.53125 63.5625 0.40625 41.203125 0.40625 Z M 41.203125 0.40625 " clip-rule="nonzero"/></clipPath><clipPath id="8eeeb64018"><rect x="0" width="82" y="0" height="82"/></clipPath></defs><g clip-path="url(#2f2b50d24b)"><g clip-path="url(#c59e9fbfa8)"><g clip-path="url(#1908b076f0)"><g transform="matrix(1, 0, 0, 1, 125, 65)"><g clip-path="url(#9d2b4134aa)"><g clip-path="url(#466c5ecac3)"><g clip-path="url(#7ba56ccd78)"><g clip-path="url(#fde2f318e6)"><path fill="#000000" d="M 138.753906 -13.664062 L 205.277344 30.972656 L 52.539062 258.605469 L -13.984375 213.972656 Z M 138.753906 -13.664062 " fill-opacity="1" fill-rule="nonzero"/></g></g></g></g></g></g></g></g><g clip-path="url(#3e5175f79c)"><g clip-path="url(#925b2d8358)"><g transform="matrix(1, 0, 0, 1, 44, 58)"><g clip-path="url(#8eeeb64018)"><g clip-path="url(#6d62d2b021)"><g clip-path="url(#8a8f895a4a)"><path fill="#000000" d="M 0.71875 0.40625 L 81.6875 0.40625 L 81.6875 81.375 L 0.71875 81.375 Z M 0.71875 0.40625 " fill-opacity="1" fill-rule="nonzero"/></g></g></g></g></g></g></svg>